<?xml version="1.0" encoding="UTF-8" standalone="no"?>
<svg
   xmlns:dc="http://purl.org/dc/elements/1.1/"
   xmlns:cc="http://creativecommons.org/ns#"
   xmlns:rdf="http://www.w3.org/1999/02/22-rdf-syntax-ns#"
   xmlns:svg="http://www.w3.org/2000/svg"
   xmlns="http://www.w3.org/2000/svg"
   xmlns:sodipodi="http://sodipodi.sourceforge.net/DTD/sodipodi-0.dtd"
   xmlns:inkscape="http://www.inkscape.org/namespaces/inkscape"
   version="1.1"
   id="Layer_1"
   x="0px"
   y="0px"
   viewBox="0 0 163.71357 247.31205"
   xml:space="preserve"
   sodipodi:docname="saved.svg"
   inkscape:version="0.92.5 (2060ec1f9f, 2020-04-08)"
   width="163.71356"
   height="247.31204"><metadata
     id="metadata11"><rdf:RDF><cc:Work
         rdf:about=""><dc:format>image/svg+xml</dc:format><dc:type
           rdf:resource="http://purl.org/dc/dcmitype/StillImage" /><dc:title></dc:title></cc:Work></rdf:RDF></metadata><defs
     id="defs9" /><sodipodi:namedview
     pagecolor="#ffffff"
     bordercolor="#666666"
     borderopacity="1"
     objecttolerance="10"
     gridtolerance="10"
     guidetolerance="10"
     inkscape:pageopacity="0"
     inkscape:pageshadow="2"
     inkscape:window-width="1920"
     inkscape:window-height="1031"
     id="namedview7"
     showgrid="false"
     inkscape:zoom="1.920573"
     inkscape:cx="60.77432"
     inkscape:cy="112.45644"
     inkscape:window-x="0"
     inkscape:window-y="25"
     inkscape:window-maximized="1"
     inkscape:current-layer="Layer_1"
     fit-margin-top="0"
     fit-margin-left="0"
     fit-margin-right="0"
     fit-margin-bottom="0" /><g
     id="g4"
     transform="scale(1.335565,2.0127943)"><path
       d="m 4.95,0 h 112.68 c 2.74,0 4.95,2.22 4.95,4.95 v 112.97 c 0,2.74 -2.22,4.95 -4.95,4.95 -1.37,0 -2.61,-0.56 -3.51,-1.46 L 61.16,75.79 8.18,121.66 c -2.06,1.78 -5.18,1.56 -6.97,-0.5 -0.81,-0.93 -1.2,-2.09 -1.2,-3.23 H 0 V 4.95 C 0,2.22 2.22,0 4.95,0 Z M 112.68,9.91 H 9.91 v 97.2 L 57.88,65.57 c 1.82,-1.62 4.61,-1.68 6.51,-0.04 l 48.3,41.61 V 9.91 Z"
       id="path2"
       inkscape:connector-curvature="0" /></g></svg>