<?xml version="1.0" encoding="UTF-8" standalone="no"?>
<svg
   xmlns:dc="http://purl.org/dc/elements/1.1/"
   xmlns:cc="http://creativecommons.org/ns#"
   xmlns:rdf="http://www.w3.org/1999/02/22-rdf-syntax-ns#"
   xmlns:svg="http://www.w3.org/2000/svg"
   xmlns="http://www.w3.org/2000/svg"
   xmlns:sodipodi="http://sodipodi.sourceforge.net/DTD/sodipodi-0.dtd"
   xmlns:inkscape="http://www.inkscape.org/namespaces/inkscape"
   version="1.1"
   id="Layer_1"
   x="0px"
   y="0px"
   width="152.29729"
   height="148.91325"
   viewBox="0 0 152.29729 148.91326"
   enable-background="new 0 0 111.686 122.879"
   xml:space="preserve"
   sodipodi:docname="speech-bubble-line.svg"
   inkscape:version="0.92.5 (2060ec1f9f, 2020-04-08)"><metadata
     id="metadata11"><rdf:RDF><cc:Work
         rdf:about=""><dc:format>image/svg+xml</dc:format><dc:type
           rdf:resource="http://purl.org/dc/dcmitype/StillImage" /><dc:title></dc:title></cc:Work></rdf:RDF></metadata><defs
     id="defs9" /><sodipodi:namedview
     pagecolor="#ffffff"
     bordercolor="#666666"
     borderopacity="1"
     objecttolerance="10"
     gridtolerance="10"
     guidetolerance="10"
     inkscape:pageopacity="0"
     inkscape:pageshadow="2"
     inkscape:window-width="1920"
     inkscape:window-height="1031"
     id="namedview7"
     showgrid="false"
     inkscape:zoom="1.9205886"
     inkscape:cx="57.925694"
     inkscape:cy="61.440055"
     inkscape:window-x="0"
     inkscape:window-y="25"
     inkscape:window-maximized="1"
     inkscape:current-layer="g4"
     fit-margin-top="0"
     fit-margin-left="0"
     fit-margin-right="0"
     fit-margin-bottom="0" /><g
     id="g4"
     transform="translate(0,26.033686)"><path
       id="path2"
       d="m 37.888727,-26.033686 v 0.02367 c -10.44542,0.0012 -19.919808,3.78056 -26.766604,9.865326 -0.133636,0.118762 -0.256831,0.243205 -0.378194,0.369239 C 4.1234953,-9.720982 0.02799707,-1.4544268 0.02663343,7.6357605 H 0 v 0.00715 H 0.02663343 V 56.212074 H 0 v 0.0047 h 0.02663343 c 0.0013636,9.281661 4.25135707,17.700476 11.09815357,23.782819 6.845432,6.083554 16.318648,9.862901 26.758614,9.865325 v 0.02367 h 0.008 14.933368 c -1.048632,2.913319 -2.256618,5.720537 -3.757977,8.409661 -2.6959,4.826861 -6.420214,9.431441 -12.03565,13.855961 -2.854082,2.24437 -3.119373,6.12176 -0.593926,8.65819 1.771358,1.7778 4.441562,2.42468 6.866099,1.87933 l 0.0053,0.0189 c 12.880868,-2.92785 24.364759,-7.39033 34.51427,-13.31391 9.181337,-5.35766 17.195171,-11.883829 24.100595,-19.529469 h 0.78569 v 0.02603 h 0.002 v -0.02603 c 9.77996,-0.0012 21.90336,-3.483993 31.50469,-9.093709 10.30905,-6.025384 18.04936,-14.653511 18.05482,-24.554435 h 0.0266 v -0.0047 h -0.0266 V 7.6428608 h 0.0266 v -0.00242 h -0.0266 c -0.002,-9.2598481 -4.25916,-17.6740418 -11.11415,-23.7733508 l 0.0136,-0.0142 c -6.84535,-6.083268 -16.31551,-9.860477 -26.75821,-9.862901 v -0.02367 h -0.008 -76.509874 z m 0.0053,6.156361 H 114.4039 c 17.03314,0 30.96664,12.3828015 30.96936,27.5201858 V 56.214441 c 0,15.137386 -25.63239,27.520186 -42.66143,27.520186 H 98.55168 C 84.755832,100.02329 65.957124,111.21385 41.606748,116.74843 54.341707,106.71178 58.510223,95.836301 61.952031,83.734627 H 37.894054 c -17.030397,0 -30.966697,-12.385224 -30.966697,-27.520186 V 7.6428608 c 0,-15.1373843 13.933571,-27.5201858 30.966697,-27.5201858 z"
       inkscape:connector-curvature="0"
       style="stroke-width:1.28550994" /></g></svg>